{
  "accessors": [
    {
      "bufferView": 2,
      "componentType": 5126,
      "count": 12206,
      "max": [2.4422175884246826, 1.3385511636734009, 4.18051815032959],
      "min": [-5.755842685699463, -0.1668519377708435, -4.303425312042236],
      "type": "VEC3"
    },
    {
      "bufferView": 2,
      "byteOffset": 146472,
      "componentType": 5126,
      "count": 12206,
      "max": [0.9999935626983643, 0.9999303817749023, 0.9999938011169434],
      "min": [-0.9999933242797852, -0.9999924898147583, -0.9999934434890747],
      "type": "VEC3"
    },
    {
      "bufferView": 1,
      "componentType": 5126,
      "count": 12206,
      "max": [0.9949433207511902, 0.9788931608200073],
      "min": [0.005056739319115877, 0.005056739319115877],
      "type": "VEC2"
    },
    {
      "bufferView": 0,
      "componentType": 5125,
      "count": 58752,
      "type": "SCALAR"
    },
    {
      "bufferView": 2,
      "byteOffset": 292944,
      "componentType": 5126,
      "count": 2747,
      "max": [1.5037758350372314, 2.137873411178589, 1.3777862787246704],
      "min": [-3.289566993713379, -0.045755986124277115, -1.3772164583206177],
      "type": "VEC3"
    },
    {
      "bufferView": 2,
      "byteOffset": 325908,
      "componentType": 5126,
      "count": 2747,
      "max": [0.99980628490448, 0.9999619722366333, 0.9999474287033081],
      "min": [-0.9972915053367615, -0.9999980926513672, -0.9998893737792969],
      "type": "VEC3"
    },
    {
      "bufferView": 1,
      "byteOffset": 97648,
      "componentType": 5126,
      "count": 2747,
      "max": [0.8750001192092896, 1.0000001192092896],
      "min": [0.1250000149011612, 0.0],
      "type": "VEC2"
    },
    {
      "bufferView": 0,
      "byteOffset": 235008,
      "componentType": 5125,
      "count": 13056,
      "type": "SCALAR"
    },
    {
      "bufferView": 2,
      "byteOffset": 358872,
      "componentType": 5126,
      "count": 473,
      "max": [4.364786148071289, 1.9841209650039673, 0.7739642262458801],
      "min": [1.236162543296814, 1.7691460847854614, -0.7970505952835083],
      "type": "VEC3"
    },
    {
      "bufferView": 2,
      "byteOffset": 364548,
      "componentType": 5126,
      "count": 473,
      "max": [0.9993109703063965, 0.9991153478622437, 0.9993230104446411],
      "min": [-0.09882155060768127, -0.999990701675415, -0.9996259212493896],
      "type": "VEC3"
    },
    {
      "bufferView": 1,
      "byteOffset": 119624,
      "componentType": 5126,
      "count": 473,
      "max": [0.6250001192092896, 0.7447917461395264],
      "min": [0.6249999403953552, 0.5052083730697632],
      "type": "VEC2"
    },
    {
      "bufferView": 0,
      "byteOffset": 287232,
      "componentType": 5125,
      "count": 1344,
      "type": "SCALAR"
    },
    {
      "bufferView": 2,
      "byteOffset": 370224,
      "componentType": 5126,
      "count": 250,
      "max": [0.6815624833106995, 2.036259889602661, 1.19516921043396],
      "min": [0.06999804079532623, 1.9376204013824463, -1.19516921043396],
      "type": "VEC3"
    },
    {
      "bufferView": 2,
      "byteOffset": 373224,
      "componentType": 5126,
      "count": 250,
      "max": [1.0, 1.0, 1.0],
      "min": [-1.0, -1.0, -1.0],
      "type": "VEC3"
    },
    {
      "bufferView": 1,
      "byteOffset": 123408,
      "componentType": 5126,
      "count": 250,
      "max": [0.8750001192092896, 1.0000001192092896],
      "min": [0.1250000149011612, 0.0],
      "type": "VEC2"
    },
    {
      "bufferView": 0,
      "byteOffset": 292608,
      "componentType": 5125,
      "count": 1152,
      "type": "SCALAR"
    }
  ],
  "asset": {
    "extras": {
      "author": "catl3rs (https://sketchfab.com/catwithantlers)",
      "license": "CC-BY-4.0 (http://creativecommons.org/licenses/by/4.0/)",
      "source": "https://sketchfab.com/3d-models/banana-duck-e542871d099947de88212a4a86315a40",
      "title": "banana duck"
    },
    "generator": "Sketchfab-12.81.0",
    "version": "2.0"
  },
  "bufferViews": [
    {
      "buffer": 0,
      "byteLength": 297216,
      "name": "floatBufferViews",
      "target": 34963
    },
    {
      "buffer": 0,
      "byteLength": 125408,
      "byteOffset": 297216,
      "byteStride": 8,
      "name": "floatBufferViews",
      "target": 34962
    },
    {
      "buffer": 0,
      "byteLength": 376224,
      "byteOffset": 422624,
      "byteStride": 12,
      "name": "floatBufferViews",
      "target": 34962
    }
  ],
  "buffers": [
    {
      "byteLength": 798848,
      "uri": "bananaDuck.bin"
    }
  ],
  "images": [
    {
      "uri": "textures/banana_peel_baseColor.png"
    }
  ],
  "materials": [
    {
      "doubleSided": true,
      "name": "banana_peel",
      "pbrMetallicRoughness": {
        "baseColorTexture": {
          "index": 0
        },
        "metallicFactor": 0.0,
        "roughnessFactor": 0.38857261279272465
      }
    },
    {
      "doubleSided": true,
      "name": "body",
      "pbrMetallicRoughness": {
        "baseColorFactor": [
          0.9602083826516892, 0.8883200502852946, 0.6876022193825663, 1.0
        ],
        "metallicFactor": 0.0,
        "roughnessFactor": 0.677273
      }
    },
    {
      "doubleSided": true,
      "name": "beak",
      "pbrMetallicRoughness": {
        "baseColorFactor": [1.0, 0.408242, 0.0, 1.0],
        "metallicFactor": 0.0,
        "roughnessFactor": 0.0
      }
    },
    {
      "doubleSided": true,
      "name": "eyes",
      "pbrMetallicRoughness": {
        "baseColorFactor": [0.0, 0.0, 0.0, 1.0],
        "metallicFactor": 0.0,
        "roughnessFactor": 0.0
      }
    }
  ],
  "meshes": [
    {
      "name": "Object_0",
      "primitives": [
        {
          "attributes": {
            "NORMAL": 1,
            "POSITION": 0,
            "TEXCOORD_0": 2
          },
          "indices": 3,
          "material": 0,
          "mode": 4
        }
      ]
    },
    {
      "name": "Object_1",
      "primitives": [
        {
          "attributes": {
            "NORMAL": 5,
            "POSITION": 4,
            "TEXCOORD_0": 6
          },
          "indices": 7,
          "material": 1,
          "mode": 4
        }
      ]
    },
    {
      "name": "Object_2",
      "primitives": [
        {
          "attributes": {
            "NORMAL": 9,
            "POSITION": 8,
            "TEXCOORD_0": 10
          },
          "indices": 11,
          "material": 2,
          "mode": 4
        }
      ]
    },
    {
      "name": "Object_3",
      "primitives": [
        {
          "attributes": {
            "NORMAL": 13,
            "POSITION": 12,
            "TEXCOORD_0": 14
          },
          "indices": 15,
          "material": 3,
          "mode": 4
        }
      ]
    }
  ],
  "nodes": [
    {
      "children": [1],
      "matrix": [
        1.0, 0.0, 0.0, 0.0, 0.0, 2.220446049250313e-16, -1.0, 0.0, 0.0, 1.0,
        2.220446049250313e-16, 0.0, 0.0, 0.0, 0.0, 1.0
      ],
      "name": "Sketchfab_model"
    },
    {
      "children": [2],
      "name": "root"
    },
    {
      "children": [3],
      "matrix": [
        1.0, 0.0, 0.0, 0.0, 0.0, 2.220446049250313e-16, 1.0, 0.0, 0.0, -1.0,
        2.220446049250313e-16, 0.0, 0.0, 0.0, 0.0, 1.0
      ],
      "name": "GLTF_SceneRootNode"
    },
    {
      "children": [4, 5, 6, 7],
      "matrix": [
        0.0, 0.0, 0.29716604948043823, 0.0, 0.0, 1.8424296379089355, 0.0, 0.0,
        -0.29716604948043823, 0.0, 0.0, 0.0, 0.021928969770669937,
        0.3658946752548218, -0.00651654414832592, 1.0
      ],
      "name": "banana peel_0"
    },
    {
      "mesh": 0,
      "name": "Object_4"
    },
    {
      "mesh": 1,
      "name": "Object_5"
    },
    {
      "mesh": 2,
      "name": "Object_6"
    },
    {
      "mesh": 3,
      "name": "Object_7"
    }
  ],
  "samplers": [
    {
      "magFilter": 9729,
      "minFilter": 9987,
      "wrapS": 10497,
      "wrapT": 10497
    }
  ],
  "scene": 0,
  "scenes": [
    {
      "name": "Sketchfab_Scene",
      "nodes": [0]
    }
  ],
  "textures": [
    {
      "sampler": 0,
      "source": 0
    }
  ]
}
