{
  "accessors": [
    {
      "bufferView": 2,
      "componentType": 5126,
      "count": 1789,
      "max": [93.68087005615234, 252.03932189941406, 115.2376937866211],
      "min": [-93.67733001708984, 31.031387329101563, -126.1805191040039],
      "type": "VEC3"
    },
    {
      "bufferView": 2,
      "byteOffset": 21468,
      "componentType": 5126,
      "count": 1789,
      "max": [0.9999560117721558, 0.9999954700469971, 0.9968094825744629],
      "min": [-0.9999546408653259, -0.9999988675117493, -0.9998793601989746],
      "type": "VEC3"
    },
    {
      "bufferView": 3,
      "componentType": 5126,
      "count": 1789,
      "max": [0.9999943375587463, 0.9964029788970947, 0.9999968409538269, 1.0],
      "min": [
        -0.9999910593032837, -0.9998067021369934, -0.9993910789489746, 1.0
      ],
      "type": "VEC4"
    },
    {
      "bufferView": 1,
      "componentType": 5126,
      "count": 1789,
      "max": [0.9953370094299316, 0.982243001461029],
      "min": [0.009979999624192715, 0.0008999999845400453],
      "type": "VEC2"
    },
    {
      "bufferView": 0,
      "componentType": 5125,
      "count": 9186,
      "type": "SCALAR"
    }
  ],
  "asset": {
    "extras": {
      "author": "bradacvojtech (https://sketchfab.com/bradacvojtech)",
      "license": "CC-BY-4.0 (http://creativecommons.org/licenses/by/4.0/)",
      "source": "https://sketchfab.com/3d-models/clay-duck-39259b33b5b24361b91f2211f3e71691",
      "title": "Clay Duck"
    },
    "generator": "Sketchfab-12.68.0",
    "version": "2.0"
  },
  "bufferViews": [
    {
      "buffer": 0,
      "byteLength": 36744,
      "name": "floatBufferViews",
      "target": 34963
    },
    {
      "buffer": 0,
      "byteLength": 14312,
      "byteOffset": 36744,
      "byteStride": 8,
      "name": "floatBufferViews",
      "target": 34962
    },
    {
      "buffer": 0,
      "byteLength": 42936,
      "byteOffset": 51056,
      "byteStride": 12,
      "name": "floatBufferViews",
      "target": 34962
    },
    {
      "buffer": 0,
      "byteLength": 28624,
      "byteOffset": 93992,
      "byteStride": 16,
      "name": "floatBufferViews",
      "target": 34962
    }
  ],
  "buffers": [
    {
      "byteLength": 122616,
      "uri": "clayDuck.bin"
    }
  ],
  "images": [
    {
      "uri": "textures/lambert1_baseColor.jpeg"
    },
    {
      "uri": "textures/lambert1_metallicRoughness.png"
    },
    {
      "uri": "textures/lambert1_normal.png"
    }
  ],
  "materials": [
    {
      "doubleSided": true,
      "name": "lambert1",
      "normalTexture": {
        "index": 2
      },
      "occlusionTexture": {
        "index": 1
      },
      "pbrMetallicRoughness": {
        "baseColorTexture": {
          "index": 0
        },
        "metallicRoughnessTexture": {
          "index": 1
        }
      }
    }
  ],
  "meshes": [
    {
      "name": "defaultMaterial",
      "primitives": [
        {
          "attributes": {
            "NORMAL": 1,
            "POSITION": 0,
            "TANGENT": 2,
            "TEXCOORD_0": 3
          },
          "indices": 4,
          "material": 0,
          "mode": 4
        }
      ]
    }
  ],
  "nodes": [
    {
      "children": [1],
      "matrix": [
        1.0, 0.0, 0.0, 0.0, 0.0, 2.220446049250313e-16, -1.0, 0.0, 0.0, 1.0,
        2.220446049250313e-16, 0.0, 0.0, 0.0, 0.0, 1.0
      ],
      "name": "Sketchfab_model"
    },
    {
      "children": [2],
      "matrix": [
        1.0, 0.0, 0.0, 0.0, 0.0, -4.371139006309477e-8, 0.999999999999999, 0.0,
        0.0, -0.999999999999999, -4.371139006309477e-8, 0.0, 0.0, 0.0, 0.0, 1.0
      ],
      "name": "Collada visual scene group"
    },
    {
      "children": [3],
      "matrix": [
        1.022128, 0.0, 0.0, 0.0, 0.0, 1.0, 0.0, 0.0, 0.0, 0.0, 1.580526, 0.0,
        0.0, 0.0, 0.0, 1.0
      ],
      "name": "mid1"
    },
    {
      "mesh": 0,
      "name": "defaultMaterial"
    }
  ],
  "samplers": [
    {
      "magFilter": 9729,
      "minFilter": 9987,
      "wrapS": 10497,
      "wrapT": 10497
    }
  ],
  "scene": 0,
  "scenes": [
    {
      "name": "Sketchfab_Scene",
      "nodes": [0]
    }
  ],
  "textures": [
    {
      "sampler": 0,
      "source": 0
    },
    {
      "sampler": 0,
      "source": 1
    },
    {
      "sampler": 0,
      "source": 2
    }
  ]
}
